<svg xmlns="http://www.w3.org/2000/svg" style="display:none">
  <symbol id="orion" viewBox="0 0 24 24"><path d="M19 14a8 8 0 1 0-6.5 5.9"/><path d="m12 11 7 8M16.5 18.5l2.5-2.5"/></symbol>
  <symbol id="search" viewBox="0 0 24 24"><circle cx="10.5" cy="10.5" r="6.5"/><path d="m16 16 5 5"/></symbol>
  <symbol id="pin" viewBox="0 0 24 24"><path d="M12 21s7-6 7-12a7 7 0 0 0-14 0c0 6 7 12 7 12Z"/><circle cx="12" cy="9" r="2.2"/></symbol>
  <symbol id="chevron-down" viewBox="0 0 24 24"><path d="m6 9 6 6 6-6"/></symbol>
  <symbol id="arrow-right" viewBox="0 0 24 24"><path d="M4 12h16m-6-6 6 6-6 6"/></symbol>
  <symbol id="arrow-left" viewBox="0 0 24 24"><path d="M20 12H4m6-6-6 6 6 6"/></symbol>
  <symbol id="sliders" viewBox="0 0 24 24"><path d="M4 7h16M4 12h16M4 17h16"/><circle cx="9" cy="7" r="2"/><circle cx="16" cy="12" r="2"/><circle cx="11" cy="17" r="2"/></symbol>
  <symbol id="heart" viewBox="0 0 24 24"><path d="M20.8 8.5c0 4.2-8.8 10-8.8 10s-8.8-5.8-8.8-10a5.1 5.1 0 0 1 8.8-3.3 5.1 5.1 0 0 1 8.8 3.3Z"/></symbol>
  <symbol id="check" viewBox="0 0 24 24"><path d="m5 12 4 4L19 6"/></symbol>
  <symbol id="close" viewBox="0 0 24 24"><path d="M5 5 19 19M19 5 5 19"/></symbol>
  <symbol id="grid" viewBox="0 0 24 24"><rect x="3" y="3" width="7" height="7" rx="1"/><rect x="14" y="3" width="7" height="7" rx="1"/><rect x="3" y="14" width="7" height="7" rx="1"/><rect x="14" y="14" width="7" height="7" rx="1"/></symbol>
  <symbol id="info" viewBox="0 0 24 24"><circle cx="12" cy="12" r="9"/><path d="M12 10v6M12 7h.01"/></symbol>
  <symbol id="bell" viewBox="0 0 24 24"><path d="M5 17h14l-2-3V9a5 5 0 0 0-10 0v5zM10 20h4"/></symbol>
</svg>
